<svg width="32" height="32" viewBox="0 0 32 32" fill="none" xmlns="http://www.w3.org/2000/svg">
  <rect x="0.5" y="0.5" width="31" height="31" rx="15.5" fill="#111215"/>
  <path d="M14.375 19.2351V19.1136C14.3835 18.321 14.4624 17.6903 14.6115 17.2216C14.7649 16.7528 14.9822 16.3736 15.2635 16.0838C15.5447 15.794 15.8835 15.5298 16.2798 15.2912C16.5355 15.1293 16.7656 14.9482 16.9702 14.7479C17.1747 14.5476 17.3366 14.3175 17.456 14.0575C17.5753 13.7976 17.6349 13.5099 17.6349 13.1946C17.6349 12.8153 17.5455 12.4872 17.3665 12.2102C17.1875 11.9332 16.9489 11.7202 16.6506 11.571C16.3565 11.4176 16.0284 11.3409 15.6662 11.3409C15.3381 11.3409 15.0249 11.4091 14.7266 11.5455C14.4283 11.6818 14.1811 11.8949 13.9851 12.1847C13.7891 12.4702 13.6761 12.8388 13.6463 13.2905H11.7031C11.733 12.5234 11.9268 11.8757 12.2848 11.3473C12.6428 10.8146 13.1158 10.4119 13.7038 10.1392C14.2962 9.86648 14.9503 9.73011 15.6662 9.73011C16.4503 9.73011 17.1364 9.87713 17.7244 10.1712C18.3125 10.4609 18.7685 10.8679 19.0923 11.392C19.4205 11.9119 19.5845 12.5192 19.5845 13.2138C19.5845 13.6911 19.5099 14.1214 19.3608 14.505C19.2116 14.8842 18.9986 15.223 18.7216 15.5213C18.4489 15.8196 18.1207 16.0838 17.7372 16.3139C17.375 16.5398 17.081 16.7741 16.8551 17.017C16.6335 17.2599 16.4716 17.5476 16.3693 17.88C16.267 18.2124 16.2116 18.6236 16.2031 19.1136V19.2351H14.375ZM15.3402 23.1214C14.9908 23.1214 14.6903 22.9979 14.4389 22.7507C14.1875 22.4993 14.0618 22.1967 14.0618 21.843C14.0618 21.4936 14.1875 21.1953 14.4389 20.9482C14.6903 20.6967 14.9908 20.571 15.3402 20.571C15.6854 20.571 15.9837 20.6967 16.2351 20.9482C16.4908 21.1953 16.6186 21.4936 16.6186 21.843C16.6186 22.0774 16.5589 22.2926 16.4396 22.4886C16.3246 22.6804 16.1712 22.8338 15.9794 22.9489C15.7876 23.0639 15.5746 23.1214 15.3402 23.1214Z" fill="#70FF00"/>
  <rect x="0.5" y="0.5" width="31" height="31" rx="15.5" stroke="#25272E"/>
</svg>
