<?xml version="1.0" standalone="no"?>
<!DOCTYPE svg PUBLIC "-//W3C//DTD SVG 20010904//EN"
 "http://www.w3.org/TR/2001/REC-SVG-20010904/DTD/svg10.dtd">
<svg version="1.0" xmlns="http://www.w3.org/2000/svg"
 width="700.000000pt" height="700.000000pt" viewBox="0 0 700.000000 700.000000"
 preserveAspectRatio="xMidYMid meet">
<metadata>
Created by potrace 1.14, written by Peter Selinger 2001-2017
</metadata>
<g transform="translate(0.000000,700.000000) scale(0.100000,-0.100000)"
fill="#000000" stroke="none">
<path d="M4237 6883 c-1 0 -54 -4 -117 -8 -267 -15 -473 -46 -731 -111 -1145
-285 -1975 -1081 -2274 -2177 -14 -53 -28 -105 -30 -115 -25 -116 -44 -214
-49 -247 -37 -262 -41 -314 -41 -600 0 -232 6 -356 20 -450 3 -16 9 -64 14
-105 34 -259 104 -523 208 -783 30 -77 51 -142 47 -147 -7 -6 -447 -259 -534
-307 -14 -8 -46 -26 -71 -41 -26 -15 -136 -78 -246 -141 l-200 -115 55 -95
c222 -389 223 -390 241 -383 19 8 308 172 418 239 40 23 75 43 78 43 3 0 24
12 48 27 23 14 67 40 97 56 30 17 61 34 68 40 7 6 32 20 55 32 23 12 96 53
162 92 l121 70 44 -61 c71 -96 129 -166 215 -260 44 -49 81 -91 83 -95 2 -6
-51 -40 -148 -94 -25 -14 -117 -67 -205 -117 -88 -51 -286 -164 -440 -252
-154 -88 -282 -162 -284 -164 -2 -2 21 -47 52 -101 30 -54 65 -116 77 -138 12
-22 43 -76 69 -120 26 -44 50 -88 54 -98 4 -9 13 -20 21 -23 8 -3 80 33 161
80 81 47 149 86 152 86 2 0 29 16 59 35 30 19 56 35 58 35 4 0 484 275 506
290 8 6 22 13 30 17 8 4 32 17 53 30 21 13 55 33 75 45 20 11 71 40 113 64
l77 45 91 -56 c264 -160 645 -316 932 -379 65 -15 126 -28 149 -32 14 -2 45
-9 70 -14 25 -5 63 -11 85 -14 22 -3 58 -8 80 -11 252 -35 683 -39 945 -9 41
5 232 36 303 49 121 23 316 79 452 130 89 33 368 164 420 197 11 7 64 41 117
75 235 150 465 359 665 604 14 17 8 21 -412 315 -82 58 -159 112 -170 120 -11
8 -81 57 -155 110 l-135 95 -40 -48 c-133 -160 -285 -294 -445 -394 -81 -50
-225 -121 -300 -148 -19 -7 -44 -17 -55 -22 -52 -23 -253 -71 -370 -88 -104
-15 -173 -18 -345 -15 -118 2 -226 5 -240 8 -32 5 -108 17 -140 21 -75 10
-289 68 -374 102 l-50 20 25 16 c13 8 164 95 334 193 667 382 760 436 768 443
5 5 -6 31 -22 60 -17 29 -31 53 -31 55 0 2 -18 34 -40 70 -22 36 -40 70 -40
76 0 5 -4 10 -10 10 -5 0 -10 5 -10 11 0 7 -98 184 -115 207 -2 2 -547 -308
-753 -429 -45 -27 -85 -49 -88 -49 -3 0 -30 -16 -60 -35 -30 -19 -56 -35 -59
-35 -2 0 -42 -22 -87 -49 -222 -130 -349 -201 -359 -201 -37 0 -369 395 -348
414 4 3 369 214 459 264 25 14 74 42 109 64 34 21 65 38 67 38 1 0 56 31 121
69 65 37 231 132 368 211 138 79 262 151 277 162 l27 18 -70 123 c-38 67 -76
133 -84 147 -8 14 -39 67 -67 117 -29 51 -56 93 -59 93 -4 0 -152 -84 -330
-186 -178 -102 -342 -196 -364 -208 -22 -13 -95 -55 -162 -94 -67 -39 -145
-84 -175 -100 -29 -17 -120 -69 -202 -116 -82 -48 -153 -83 -157 -79 -19 19
-92 350 -104 473 -3 30 -8 69 -11 85 -12 78 -12 468 1 580 42 384 150 720 322
1005 359 593 949 950 1647 997 155 10 366 4 450 -13 11 -2 41 -7 65 -10 25 -3
48 -7 53 -10 4 -3 21 -7 36 -9 39 -4 162 -39 253 -71 257 -90 516 -264 666
-446 30 -38 60 -68 65 -68 7 0 254 193 837 656 9 8 -83 117 -179 212 -237 235
-569 429 -955 559 -122 41 -265 82 -336 97 -84 17 -180 35 -214 40 -22 4 -53
8 -70 11 -133 20 -142 21 -300 30 -119 7 -324 12 -328 8z"/>
</g>
</svg>
