<?xml version="1.0" standalone="no"?>
<!DOCTYPE svg PUBLIC "-//W3C//DTD SVG 20010904//EN"
 "http://www.w3.org/TR/2001/REC-SVG-20010904/DTD/svg10.dtd">
<svg version="1.0" xmlns="http://www.w3.org/2000/svg"
 width="672.000000pt" height="672.000000pt" viewBox="0 0 672.000000 672.000000"
 preserveAspectRatio="xMidYMid meet">
<metadata>
Created by potrace 1.14, written by Peter Selinger 2001-2017
</metadata>
<g transform="translate(0.000000,672.000000) scale(0.100000,-0.100000)"
fill="#000000" stroke="none">
<path d="M3122 6694 c-154 -51 -330 -142 -612 -314 -8 -5 -166 -100 -350 -212
-184 -111 -372 -225 -417 -253 -46 -27 -95 -57 -110 -65 -16 -9 -61 -37 -101
-63 -40 -26 -75 -47 -77 -47 -5 0 -358 -222 -365 -229 -3 -3 -31 -24 -63 -45
-75 -51 -203 -179 -284 -286 -35 -47 -91 -140 -124 -207 l-59 -123 0 -1490 0
-1491 55 -110 c30 -60 73 -136 94 -168 124 -183 342 -364 683 -566 9 -5 54
-32 99 -60 46 -27 99 -59 119 -71 19 -12 149 -90 288 -175 280 -170 263 -160
347 -208 33 -19 62 -38 65 -41 3 -4 12 -10 20 -14 19 -9 40 -22 120 -72 36
-22 72 -44 80 -47 8 -4 29 -16 45 -26 156 -96 407 -228 480 -251 22 -7 45 -16
50 -20 6 -4 26 -10 45 -14 19 -3 51 -9 70 -13 79 -16 440 -7 471 12 3 2 19 7
36 9 105 19 329 133 706 360 18 11 41 24 52 30 11 6 31 19 45 27 30 19 471
288 517 315 17 11 64 39 105 64 40 25 77 47 83 49 5 2 12 7 15 10 7 8 36 26
85 52 22 12 42 25 45 29 4 6 44 31 118 75 60 35 233 161 266 191 49 47 76 111
83 196 6 74 -3 107 -48 173 -46 68 -212 218 -339 305 -19 13 -37 27 -40 31 -9
12 -214 144 -265 171 -60 31 -145 57 -200 59 -57 3 -122 -10 -136 -27 -6 -8
-19 -14 -28 -14 -9 0 -33 -11 -52 -25 -20 -13 -39 -22 -41 -19 -3 2 -11 -2
-18 -11 -7 -8 -16 -15 -21 -15 -5 0 -57 -28 -117 -62 -59 -33 -118 -67 -132
-75 -14 -8 -38 -23 -55 -33 -16 -10 -41 -25 -55 -33 -102 -58 -176 -102 -178
-109 -2 -4 -8 -8 -12 -8 -5 0 -51 -25 -102 -56 -82 -50 -137 -82 -203 -118
-11 -6 -22 -13 -25 -16 -4 -4 -53 -32 -110 -61 -78 -42 -169 -70 -235 -74
-105 -7 -173 23 -483 212 -114 69 -223 135 -242 146 -19 10 -46 27 -60 36 -39
25 -63 39 -95 57 -16 10 -48 29 -70 43 -22 14 -42 26 -45 26 -3 0 -24 13 -48
28 -24 15 -54 33 -68 39 -13 6 -24 15 -24 20 0 4 -4 8 -10 8 -5 0 -62 34 -125
75 -219 143 -308 221 -353 311 -53 106 -56 162 -55 869 2 828 7 939 53 1043
40 89 149 171 587 439 87 53 176 107 198 120 22 13 47 28 55 33 36 23 388 235
420 252 19 11 40 24 45 28 6 4 40 24 76 44 89 48 164 65 274 63 98 -2 135 -16
273 -99 34 -21 64 -38 66 -38 2 0 92 -54 201 -120 108 -66 200 -120 205 -120
5 0 10 -3 12 -7 2 -5 48 -35 103 -68 55 -32 102 -62 105 -66 3 -3 10 -8 17
-10 21 -7 160 -112 171 -129 15 -24 -10 -69 -61 -106 -66 -48 -204 -130 -294
-175 l-61 -30 -54 27 c-29 14 -137 75 -240 135 -102 60 -191 109 -196 109 -6
0 -12 4 -14 8 -7 18 -111 52 -179 59 -96 9 -137 7 -249 -11 -58 -9 -664 -365
-678 -398 -2 -5 -8 -8 -13 -8 -21 0 -147 -105 -197 -164 -64 -76 -91 -176 -97
-356 -3 -74 -5 -135 -5 -135 -4 0 0 -527 4 -615 11 -223 37 -293 145 -400 85
-85 317 -240 614 -412 189 -109 223 -121 353 -124 183 -4 244 16 504 169 131
77 411 251 439 272 73 56 85 88 55 150 -16 34 -40 58 -109 110 -80 60 -135 80
-150 55 -3 -5 -15 -10 -25 -10 -10 0 -20 -3 -22 -7 -1 -5 -32 -23 -68 -42 -36
-19 -119 -67 -185 -106 -66 -40 -154 -89 -195 -111 -41 -21 -77 -41 -80 -44
-15 -16 -98 -44 -130 -44 -43 0 -146 48 -281 130 -49 30 -94 54 -99 54 -6 0
-10 5 -10 10 0 6 -5 10 -10 10 -23 0 -250 152 -299 200 -84 84 -94 137 -94
490 1 398 9 461 68 523 84 89 633 411 710 418 77 6 140 -26 595 -300 19 -11
42 -24 50 -27 8 -3 24 -10 35 -14 84 -36 178 -33 253 6 15 8 33 14 40 14 6 0
12 3 12 8 0 4 20 16 45 27 25 11 45 22 45 26 0 3 18 14 40 24 22 10 40 22 40
27 0 4 4 8 10 8 14 0 284 172 293 187 4 7 13 13 19 13 5 0 29 15 52 33 22 17
50 39 60 47 52 40 121 120 142 165 58 121 19 233 -122 355 -81 69 -608 410
-634 410 -6 0 -10 5 -10 10 0 6 -4 10 -9 10 -5 0 -62 33 -128 73 -65 40 -160
97 -211 127 -51 30 -108 63 -125 74 -58 34 -201 103 -237 114 -80 25 -270 34
-390 18 -53 -7 -175 -61 -315 -139 -193 -109 -352 -203 -363 -214 -7 -7 -18
-13 -24 -13 -5 0 -33 -15 -61 -34 -29 -19 -68 -42 -87 -53 -19 -10 -53 -30
-75 -44 -22 -15 -112 -71 -200 -124 -88 -54 -207 -129 -264 -167 -57 -37 -105
-68 -108 -68 -2 0 -9 -5 -16 -10 -31 -26 -106 -80 -112 -80 -7 0 -44 -39 -90
-95 -53 -64 -156 -273 -170 -345 -21 -103 -24 -148 -30 -485 -2 -154 -5 -280
-6 -280 0 0 -1 -30 -2 -68 -1 -37 0 -67 3 -67 3 0 4 -19 3 -42 -3 -51 -4 -107
-3 -211 1 -42 -2 -82 -5 -87 -3 -6 -3 -10 2 -10 4 0 8 -75 9 -168 1 -278 12
-441 32 -517 51 -189 160 -354 317 -480 28 -22 52 -42 55 -45 3 -3 14 -10 25
-17 110 -66 275 -169 297 -184 15 -11 29 -19 32 -19 5 0 161 -95 197 -120 14
-10 49 -30 77 -45 29 -15 55 -32 58 -37 3 -5 13 -12 23 -16 17 -8 137 -78 240
-142 34 -22 64 -40 66 -40 1 0 42 -24 91 -53 100 -60 251 -136 304 -154 136
-46 389 -47 505 -3 68 25 299 153 539 297 76 45 140 83 143 83 2 0 9 5 16 10
13 12 105 67 177 108 25 14 56 32 70 42 63 43 298 170 314 170 29 0 107 -47
246 -149 86 -63 90 -66 114 -103 23 -34 15 -60 -32 -104 -39 -37 -230 -167
-367 -250 -44 -27 -81 -52 -83 -56 -2 -5 -7 -8 -12 -8 -7 0 -66 -34 -155 -90
-83 -52 -149 -90 -156 -90 -5 0 -9 -4 -9 -10 0 -5 -5 -10 -11 -10 -6 0 -30
-13 -54 -30 -24 -16 -46 -30 -50 -30 -3 0 -37 -20 -75 -45 -38 -25 -71 -45
-74 -45 -3 0 -32 -17 -63 -37 -32 -20 -60 -36 -62 -34 -2 1 -7 -1 -10 -6 -3
-5 -26 -20 -51 -34 -25 -13 -47 -26 -50 -29 -6 -6 -12 -9 -142 -78 -53 -29
-104 -52 -112 -52 -9 0 -16 -4 -16 -8 0 -5 -33 -17 -72 -27 -56 -15 -107 -19
-218 -19 -223 1 -243 8 -575 204 -169 101 -241 143 -325 191 -14 8 -27 16 -30
19 -7 7 -43 29 -60 37 -8 4 -45 26 -83 50 -37 24 -70 43 -73 43 -3 0 -29 15
-57 33 -104 68 -256 157 -265 157 -6 0 -12 4 -14 8 -2 7 -152 100 -347 217 -9
6 -34 21 -56 34 -179 107 -315 203 -399 283 -47 44 -86 84 -86 89 0 5 -10 20
-22 34 -49 57 -116 203 -138 302 -29 128 -34 327 -34 1263 0 913 5 1113 29
1230 3 14 7 37 10 52 3 15 10 40 17 55 6 15 12 30 13 33 1 8 74 152 93 185 20
36 111 129 167 172 52 40 292 199 375 248 36 22 67 43 68 47 2 4 8 8 13 8 5 0
67 35 137 79 196 121 493 301 498 301 3 0 10 5 17 11 10 8 157 97 505 303 23
14 46 26 50 27 4 0 14 6 22 13 8 7 22 16 30 19 8 4 33 18 55 31 186 115 268
139 465 140 207 0 250 -13 470 -137 85 -48 162 -92 170 -97 8 -5 222 -134 475
-286 253 -152 509 -307 568 -343 59 -36 115 -71 125 -76 283 -165 469 -293
575 -398 85 -83 94 -86 164 -47 102 58 152 93 168 116 40 62 -4 155 -133 282
-57 56 -216 164 -522 354 -102 63 -221 136 -265 164 -104 64 -117 72 -135 81
-8 4 -21 13 -28 20 -7 7 -20 13 -28 13 -8 0 -14 4 -14 9 0 5 -10 13 -22 17
-13 4 -25 10 -28 13 -5 6 -336 209 -390 238 -14 8 -38 23 -55 33 -16 11 -46
29 -65 40 -19 11 -48 29 -65 40 -16 10 -41 25 -55 33 -14 7 -83 49 -155 92
-144 86 -314 175 -337 175 -8 0 -18 3 -22 7 -3 4 -12 8 -19 10 -121 29 -172
34 -382 38 -224 4 -232 4 -303 -21z"/>
</g>
</svg>
